<?xml version="1.0" encoding="iso-8859-1"?>
<!-- Generator: Adobe Illustrator 19.0.0, SVG Export Plug-In . SVG Version: 6.00 Build 0)  -->
<svg version="1.1" id="Layer_1" xmlns="http://www.w3.org/2000/svg" xmlns:xlink="http://www.w3.org/1999/xlink" x="0px" y="0px"
	 viewBox="0 0 512 512" style="enable-background:new 0 0 512 512;" xml:space="preserve">
<path style="fill:#F77E41;" d="M345.043,122.435v55.652H166.956v-55.652c0-12.295,9.966-22.261,22.261-22.261h33.391V33.391
	C222.609,14.95,237.558,0,256,0s33.391,14.949,33.391,33.391v66.783h33.391C335.077,100.174,345.043,110.14,345.043,122.435z"/>
<path style="fill:#DD6A37;" d="M345.043,166.957H166.956v-11.13h178.087V166.957z"/>
<path style="fill:#D15D39;" d="M200.348,100.174h22.261v33.391c0,6.147-4.983,11.13-11.13,11.13c-6.147,0-11.13-4.983-11.13-11.13
	V100.174z M289.391,100.174v33.391c0,6.147,4.983,11.13,11.13,11.13c6.147,0,11.13-4.983,11.13-11.13v-33.391H289.391z
	 M244.87,133.565c0,6.147,4.983,11.13,11.13,11.13c6.147,0,11.13-4.983,11.13-11.13v-33.391H244.87V133.565z"/>
<path style="fill:#FF9B57;" d="M222.609,76.005V33.391C222.609,14.95,237.558,0,256,0c3.903,0,7.648,0.677,11.13,1.908v42.614
	c0,18.442-14.949,33.391-33.391,33.391C229.836,77.913,226.091,77.236,222.609,76.005z"/>
<path style="fill:#A4BDBB;" d="M368.28,186.369l31.863,250.302C405.229,476.616,374.535,512,334.8,512H177.2
	c-39.735,0-70.429-35.384-65.343-75.329l31.863-250.302c1.414-11.101,10.739-19.413,21.781-19.413h180.999
	C357.542,166.957,366.867,175.268,368.28,186.369z"/>
<path style="fill:#B6CECC;" d="M345.043,345.043c0,61.471-49.833,111.304-111.304,111.304h-22.261
	c-40.407,0-75.783-21.533-95.284-53.748l27.526-216.231c1.414-11.101,10.739-19.413,21.781-19.413h179.543V345.043z"/>
<path style="fill:#53605F;" d="M233.888,256c0-6.147,4.983-11.13,11.13-11.13h21.961c6.147,0,11.13,4.983,11.13,11.13
	s-4.983,11.13-11.13,11.13h-21.961C238.871,267.13,233.888,262.147,233.888,256z M288.943,311.652h-65.886
	c-6.147,0-11.13,4.983-11.13,11.13s4.983,11.13,11.13,11.13h65.886c6.147,0,11.13-4.983,11.13-11.13S295.09,311.652,288.943,311.652
	z M266.981,378.435H245.02c-6.147,0-11.13,4.983-11.13,11.13c0,6.147,4.983,11.13,11.13,11.13h21.961
	c6.147,0,11.13-4.983,11.13-11.13C278.112,383.418,273.129,378.435,266.981,378.435z"/>
</svg>
