<?xml version="1.0" encoding="iso-8859-1"?>
<!-- Generator: Adobe Illustrator 19.0.0, SVG Export Plug-In . SVG Version: 6.00 Build 0)  -->
<svg version="1.1" id="Capa_1" xmlns="http://www.w3.org/2000/svg" xmlns:xlink="http://www.w3.org/1999/xlink" x="0px" y="0px"
	 viewBox="0 0 463.972 463.972" style="enable-background:new 0 0 463.972 463.972;" xml:space="preserve">
<g>
	<path style="fill:#F3B01B;" d="M415.186,394.661h-366.4c-16.8,0-29.6-10-34.8-27.6c-3.2-11.2-4-23.2-2.4-34.8
		c2-14,5.6-28,11.6-41.2c15.6-36.8,45.2-66.4,82-82.4l11.2-4.8l-3.2,12c-0.8,2.8-1.2,5.6-2,8.4c-1.6,9.2-2,18.8-0.8,28.4
		c1.6,12,6.8,21.2,14.8,25.2c2.8,1.6,6,2.4,9.6,2c3.2,0,6.4-1.2,9.2-3.2c6.8-5.2,10-14.8,10-27.2c-0.4-9.2,0.8-18.4,3.2-27.6
		c2-7.2,4.8-14.4,8-21.2l1.6-3.2h42.8v62.8c0,12.4,10,22.4,22.4,22.4c12.4,0,22.4-10,22.4-22.4v-62.8h43.2l1.6,3.2
		c3.2,6.8,6,14,8,21.2c2.4,8.8,3.6,18.4,3.2,27.6c-0.4,12.4,3.2,22,9.6,27.2c2.8,2,5.6,3.2,9.2,3.2c3.2,0,6.4-0.4,9.6-2
		c8-4,13.2-13.2,14.8-25.2c1.2-9.2,1.2-18.8-0.8-28.4c-0.4-2.8-1.2-5.6-2-8.4l-2.8-11.6l11.2,4.8c36.8,16,66,45.6,82,82.4
		c5.6,13.2,9.6,26.8,11.2,41.2c1.6,11.6,0.8,23.6-2.4,35.2C444.786,384.661,431.986,394.661,415.186,394.661z M98.786,224.661
		c-29.2,15.6-52,40.8-64.8,71.2c-5.2,12-8.8,24.8-10.4,37.6c-1.6,10-0.8,20.4,1.6,30.4c2.8,8.8,8.8,19.2,23.6,19.2h366.4
		c11.6,0,19.6-6.4,23.6-19.2c2.8-10,3.2-20,1.6-30.4c-1.6-12.8-5.2-25.6-10.4-37.6c-13.2-30.4-36-55.2-64.8-71.2
		c1.6,9.6,1.6,19.6,0.4,29.2c-2,16-9.6,28.4-21.2,34.4c-4.8,2.4-10.4,3.6-15.6,3.2c-5.6-0.4-10.8-2.4-15.6-5.6
		c-10-7.6-15.2-20.4-14.8-37.2c0.4-8-0.8-16-2.8-24c-1.6-5.2-3.2-10.4-5.6-15.6h-23.6v51.2c0,18.8-15.6,34.4-34.4,34.4
		s-34.4-15.2-34.4-34.4v-50.8h-23.6c-2.4,5.2-4,10.4-5.6,15.6c-2,8-3.2,16-2.8,24c0.4,16.4-4.8,29.6-14.8,37.2
		c-4.4,3.6-10,5.6-15.6,6c-5.2,0-10.4-1.6-15.2-4c-11.6-6-19.2-18.4-21.2-34.4C97.586,244.261,97.586,234.261,98.786,224.661z"/>
	<path style="fill:#F3B01B;" d="M107.186,214.261c-35.6,15.2-63.6,43.6-78.8,79.2c-5.6,12.4-9.2,25.6-10.8,39.2
		c-1.6,10.8-0.8,22,2,32.8c4.4,14,14,23.2,29.2,23.2h366.4c15.2,0,24.8-9.2,29.2-23.2c2.8-10.8,3.6-21.6,2-32.8
		c-1.6-13.6-5.6-26.8-10.8-39.2c-15.2-35.6-43.2-64-78.8-79.2c0.8,2.8,1.6,6,2,8.8c1.6,10,2,20,0.8,30c-2,15.2-9.2,25.2-18,30
		c-4,2-8.4,3.2-12.8,2.8c-4.4-0.4-8.8-2-12.4-4.4c-7.2-5.6-12.8-16.4-12-32c0.4-8.8-0.8-17.6-3.2-26c-2-6.8-4.4-13.6-7.6-20h-33.6
		v56.8c0,15.6-12.8,28.4-28.4,28.4s-28.4-12.8-28.4-28.4v-56.8h-33.2c-3.2,6.4-5.6,13.2-7.6,20c-2.4,8.4-3.2,17.2-3.2,26
		c0.4,15.6-4.8,26.4-12,32c-3.6,2.8-8,4.4-12.4,4.4c-4.4,0.4-8.8-0.8-12.8-2.8c-8.8-4.4-16-14.8-18-30c-1.2-10-1.2-20,0.8-30
		C105.986,220.261,106.386,217.061,107.186,214.261z"/>
</g>
<g>
	<path style="fill:#F5D473;" d="M133.986,275.061c-2,0-4.4-0.4-6-1.6c-6.4-3.2-11.2-11.2-12.4-21.6c-1.2-8.8-0.8-18,0.8-26.8l0,0
		c1.2-6.8,3.2-13.2,5.6-19.6l1.2-2.8l3.2-0.8c8.4-2,16.8-3.2,25.6-4l9.6-0.8l-3.6,9.2c-2,4.8-3.6,9.6-4.8,14.4
		c-2.4,9.6-3.6,19.2-3.2,28.8c0.4,14-4,20-8,23.2c-2,1.6-4,2.4-6.4,2.4L133.986,275.061z"/>
	<path style="fill:#F5D473;" d="M231.986,277.861c-9.6,0-17.6-8-17.6-17.6l0,0v-62.8h35.2v62.8c0,4.8-2,9.2-5.2,12.4
		C241.186,275.861,236.786,277.861,231.986,277.861z"/>
	<path style="fill:#F5D473;" d="M330.386,275.061h-0.8c-2.4,0-4.4-0.8-6.4-2.4c-4-2.8-8.4-9.2-8-23.2c0.4-9.6-0.8-19.6-3.2-28.8l0,0
		c-1.2-4.8-2.8-9.6-4.8-14.4l-3.6-9.2l9.6,0.8c8.8,0.8,17.2,2,25.6,4l3.2,0.8l1.2,2.8c2.4,6.4,4.4,12.8,5.6,19.6
		c1.6,8.8,2,18,0.8,26.8c-1.2,10.4-5.6,18.4-12.4,21.6C334.386,274.661,332.386,275.061,330.386,275.061z"/>
</g>
<path style="fill:#CD9A2B;" d="M415.186,394.661h-366.4c-16.8,0-29.6-10-34.8-27.6c-1.6-5.2-2.4-10.4-2.8-15.6l-0.4-6.4h442.8
	l-0.4,6.4c-0.4,5.2-1.2,10.4-2.8,15.6C444.786,384.661,431.986,394.661,415.186,394.661z"/>
<g>
	<path style="fill:#F5D473;" d="M11.186,351.061c-0.4-6.4,0-12.8,0.4-18.8c2-14,5.6-28,11.6-41.2c15.6-36.8,45.2-66.4,82-82.4
		l11.2-4.8l-3.2,12c-0.8,2.8-1.2,5.6-2,8.4c-0.4,1.2-0.4,2.4-0.8,4l-0.4,3.2l-3.2,1.2c-31.6,14-62.8,41.2-77.6,75.2L11.186,351.061z
		"/>
	<path style="fill:#F5D473;" d="M156.786,221.061l2.8-8c1.6-4.4,3.2-8.4,5.2-12.4l1.6-3.2h43.2v24L156.786,221.061z"/>
	<path style="fill:#F5D473;" d="M254.386,221.061v-24h43.2l1.6,3.2c2,4,3.6,8,5.2,12.4l2.8,8L254.386,221.061z"/>
	<path style="fill:#F5D473;" d="M453.186,351.061c0,0-11.2-31.2-16.8-43.6c-14.8-33.6-47.6-61.2-79.2-75.2l-3.2-1.2l-0.4-3.2
		c0-1.2-0.4-2.4-0.8-4l0,0c-0.4-2.8-1.2-5.6-2-8.4l-2.8-11.2l11.2,4.8c36.8,16,66,45.6,82,82.4c5.6,13.2,9.6,26.8,11.2,41.2
		C453.186,338.661,453.186,345.061,453.186,351.061z"/>
</g>
<path style="fill:#493C33;" d="M225.586,62.261c2.4-4,7.6-4.8,11.6-2.4s4.8,7.6,2.4,11.6c0,0.4-0.4,0.4-0.8,0.8c0,0-10,12.8-2,24.4
	l0.4,0.4c5.2,6.8,8.4,14.8,9.6,23.2c0.4,6.8-1.2,13.6-4.8,19.6c-2.4,4-7.2,5.6-11.6,3.6s-5.6-7.2-3.6-11.6c2-2.8,2.8-6.4,2.8-10
	c-1.2-5.6-3.6-10.8-7.2-15.2l-0.4-0.4C208.386,84.261,225.586,62.261,225.586,62.261z M288.386,62.261c3.2-3.6,8.4-4,12-0.8
	c3.2,2.8,4,7.6,1.6,11.2c0,0-10,12.8-2,24.4l0,0c5.2,6.8,8.8,14.8,10,23.6c0.4,6.8-1.2,13.6-4.8,19.6c-2.4,4-7.2,5.6-11.6,3.6
	c-4-2.4-5.6-7.2-3.6-11.6c2-2.8,2.8-6.4,2.8-10c-1.2-5.6-3.6-11.2-7.2-15.6l0,0C271.186,84.261,288.386,62.261,288.386,62.261
	L288.386,62.261z M312.386,203.861c2,4.8,4,10,5.2,15.2c2.8,10,4,20.4,3.6,30.8c-0.4,9.6,2,15.6,5.6,18c0.8,0.8,2,1.2,3.2,1.2
	s2.4-0.4,3.6-0.8c4.4-2.4,8-8,9.2-17.2c1.2-8.4,0.8-16.8-0.8-25.2c-1.2-6.4-2.8-12.4-5.2-18.4
	C328.786,205.861,320.786,204.661,312.386,203.861L312.386,203.861z M146.386,219.061c1.2-5.2,3.2-10.4,5.2-15.2
	c-8.4,0.8-16.4,2-24.4,4c-2.4,6-4,12-5.2,18.4c-1.6,8.4-1.6,16.8-0.8,25.2c1.2,9.2,4.8,14.8,9.2,17.2c1.2,0.8,2.4,0.8,3.6,0.8
	c1.2,0,2.4-0.4,3.2-1.2c3.2-2.4,5.6-8.4,5.6-18C142.386,239.461,143.586,229.061,146.386,219.061z M117.586,192.661
	c0.8-0.4,1.2-0.4,2-0.8c3.6-0.8,7.6-2,11.2-2.4c8.8-1.6,17.6-2.8,26.4-2.8h149.6c8.8,0.4,18,1.2,26.8,2.8c4,0.8,8,1.6,11.6,2.8
	c0.4,0,0.8,0.4,1.2,0.4c51.6,14.8,86.8,53.6,104.4,94c6.4,14,10.4,28.8,12.4,44c1.6,13.2,0.8,26.8-2.8,39.6
	c-6.4,21.2-21.6,35.2-45.2,35.2h-366.4c-23.6,0-38.8-14-45.2-35.2c-3.6-12.8-4.4-26.4-2.8-39.6c2-15.2,6-30,12.4-44
	C30.386,246.661,65.586,207.461,117.586,192.661L117.586,192.661z M220.386,203.461v56.8c0,6.4,5.2,11.6,11.6,11.6
	c3.2,0,6-1.2,8-3.6l0,0c2-2,3.2-4.8,3.2-8v-56.8H220.386z M260.386,203.461v56.8c0,7.6-3.2,14.8-8.4,20l0,0
	c-11.2,11.2-29.2,10.8-40,0c-5.2-5.2-8-12.4-8.4-20v-56.8h-33.2c-3.2,6.4-5.6,13.2-7.6,20c-2.4,8.4-3.2,17.2-3.2,26
	c0.4,15.6-4.8,26.4-12,32c-3.6,2.8-8,4.4-12.4,4.4c-4.4,0.4-8.8-0.8-12.8-2.8c-8.8-4.4-16-14.8-18-30c-1.2-10-1.2-20,0.8-30
	c0.4-3.2,1.2-6,2-8.8c-35.6,15.2-64,43.6-78.8,79.2c-5.6,12.4-9.2,25.6-10.8,39.2c-1.6,10.8-0.8,22,2,32.8c4.4,14,14,23.2,29.2,23.2
	h366.4c15.2,0,24.8-9.2,29.2-23.2c2.8-10.8,3.6-21.6,2-32.8c-1.6-13.6-5.6-26.8-10.8-39.2c-15.2-35.6-43.2-64-78.8-79.2
	c0.8,2.8,1.6,6,2,8.8c1.6,10,2,20,0.8,30c-2,15.2-9.2,25.2-18,30c-4,2-8.4,3.2-12.8,2.8c-4.4-0.4-8.8-2-12.4-4.4
	c-7.2-5.6-12.8-16.4-12-32c0.4-8.8-0.8-17.6-3.2-26c-2-6.8-4.4-13.6-7.6-20L260.386,203.461z M162.786,62.261
	c3.2-3.6,8.4-3.6,12-0.8c3.2,2.8,3.6,7.2,1.6,10.8c0,0-10,12.8-2,24.4l0,0c5.2,6.8,8.8,14.8,10,23.6c0.4,6.8-1.2,13.6-4.8,19.6
	c-2.4,4-7.2,5.6-11.6,3.6s-5.6-7.2-3.6-11.6c2-2.8,2.8-6.4,2.8-10c-1.2-5.6-3.6-11.2-7.2-15.6l0,0
	C145.586,84.261,162.786,62.261,162.786,62.261z"/>
<g>
</g>
<g>
</g>
<g>
</g>
<g>
</g>
<g>
</g>
<g>
</g>
<g>
</g>
<g>
</g>
<g>
</g>
<g>
</g>
<g>
</g>
<g>
</g>
<g>
</g>
<g>
</g>
<g>
</g>
</svg>
