<?xml version="1.0" encoding="iso-8859-1"?>
<!-- Generator: Adobe Illustrator 19.0.0, SVG Export Plug-In . SVG Version: 6.00 Build 0)  -->
<svg version="1.1" id="Capa_1" xmlns="http://www.w3.org/2000/svg" xmlns:xlink="http://www.w3.org/1999/xlink" x="0px" y="0px"
	 viewBox="0 0 512 512" style="enable-background:new 0 0 512 512;" xml:space="preserve">
<path style="fill:#E36FA5;" d="M314.806,175.733c0.095,11.779,9.681,21.365,21.46,21.46c39.313,0.316,86.502-8.939,125.017-23.902
	c20.557-7.986,47.016-23.984,50.481-45.764l0,0c1.862-11.705-7.628-22.109-19.454-21.326l-15.681,1.038
	c-10.112,0.669-18.499-7.719-17.83-17.83l1.173-17.737c0.368-5.57-1.757-10.665-5.368-14.276c-3.611-3.611-8.706-5.737-14.276-5.368
	L422.591,53.2c-10.112,0.669-18.499-7.719-17.83-17.83l1.038-15.681c0.782-11.826-9.621-21.317-21.326-19.455l0,0
	c-21.78,3.466-37.778,29.925-45.764,50.481C323.745,89.231,314.49,136.42,314.806,175.733z"/>
<g style="opacity:0.1;">
	<path d="M336.155,183.354c-0.407,0-0.82-0.033-1.235-0.102c-4.087-0.678-6.85-4.54-6.173-8.626
		c2.299-13.862,21.055-62.5,40.803-84.289c2.782-3.071,7.525-3.301,10.594-0.521c3.069,2.782,3.303,7.525,0.522,10.594
		c-17.478,19.283-35.368,66.105-37.119,76.67C342.937,180.75,339.758,183.354,336.155,183.354z"/>
	<path d="M336.138,183.354c-3.603,0-6.781-2.604-7.391-6.274c-0.677-4.086,2.086-7.948,6.173-8.626
		c10.564-1.751,57.387-19.642,76.67-37.119c3.068-2.78,7.811-2.549,10.594,0.521c2.781,3.068,2.548,7.812-0.521,10.594
		c-21.789,19.748-70.427,38.504-84.289,40.803C336.958,183.32,336.545,183.354,336.138,183.354z"/>
</g>
<path style="opacity:0.2;enable-background:new    ;" d="M322.13,107.442c-4.845,23.32-7.496,46.964-7.324,68.291
	c0.095,11.779,9.681,21.365,21.46,21.46c21.327,0.171,44.971-2.479,68.291-7.324c-7.87-17.733-19.053-34.339-33.57-48.857
	C356.469,126.494,339.863,115.311,322.13,107.442z"/>
<path style="fill:#E36FA5;" d="M175.732,314.807c11.779,0.095,21.365,9.681,21.46,21.46c0.316,39.313-8.939,86.502-23.902,125.017
	c-7.986,20.557-23.984,47.016-45.764,50.481l0,0c-11.705,1.863-22.109-7.628-21.326-19.454l1.038-15.681
	c0.669-10.111-7.719-18.499-17.83-17.83l-17.737,1.173c-5.57,0.368-10.665-1.757-14.276-5.368
	c-3.611-3.611-5.737-8.706-5.368-14.276l1.174-17.737c0.669-10.112-7.719-18.499-17.83-17.83L19.69,405.8
	c-11.826,0.782-21.317-9.621-19.454-21.326l0,0c3.466-21.78,29.924-37.778,50.481-45.764
	C89.229,323.746,136.418,314.491,175.732,314.807z"/>
<g style="opacity:0.1;">
	<path d="M95.375,382.608c-2.044,0-4.079-0.83-5.56-2.463c-2.782-3.069-2.549-7.813,0.52-10.595
		c21.789-19.748,70.428-38.504,84.29-40.803c4.078-0.673,7.948,2.087,8.626,6.173c0.678,4.086-2.086,7.948-6.172,8.626
		c-10.565,1.751-57.386,19.642-76.669,37.119C98.973,381.967,97.171,382.608,95.375,382.608z"/>
	<path d="M136.889,424.127c-1.796,0-3.598-0.642-5.034-1.942c-3.069-2.782-3.302-7.525-0.52-10.594
		c17.475-19.283,35.367-66.105,37.119-76.671c0.677-4.086,4.54-6.852,8.626-6.171c4.086,0.677,6.85,4.539,6.172,8.626
		c-2.299,13.861-21.056,62.5-40.803,84.288C140.968,423.297,138.932,424.127,136.889,424.127z"/>
</g>
<path style="opacity:0.2;enable-background:new    ;" d="M107.441,322.131c23.32-4.845,46.964-7.495,68.291-7.324
	c11.779,0.095,21.365,9.681,21.46,21.46c0.171,21.327-2.479,44.971-7.324,68.291c-17.733-7.87-34.339-19.053-48.857-33.57
	C126.493,356.47,115.31,339.864,107.441,322.131z"/>
<circle style="fill:#E9CA59;" cx="256" cy="256" r="144.98"/>
<g>
	<path style="fill:#E36FA5;" d="M235.732,112.441c-21.594,23.12-36.871,53.883-29.825,89.11
		c6.897,34.484,42.107,52.27,50.092,54.448c-24.683-43.559,9.533-94.74,54.448-106.719c14.69-3.918,27.401-5.24,37.492-5.386
		C315.753,117.436,274.838,106.951,235.732,112.441z"/>
	<path style="fill:#E36FA5;" d="M112.44,276.267c23.12,21.594,53.883,36.871,89.11,29.825c34.484-6.897,52.27-42.107,54.448-50.092
		c-43.559,24.683-94.74-9.533-106.719-54.448c-3.918-14.69-5.24-27.401-5.386-37.492C117.435,196.246,106.95,237.161,112.44,276.267
		z"/>
	<path style="fill:#E36FA5;" d="M276.266,399.559c21.594-23.12,36.871-53.883,29.825-89.11
		c-6.896-34.485-42.106-52.271-50.092-54.449c24.683,43.559-9.533,94.74-54.448,106.719c-14.69,3.918-27.401,5.24-37.492,5.386
		C196.245,394.564,237.16,405.049,276.266,399.559z"/>
	<path style="fill:#E36FA5;" d="M399.558,235.733c-23.121-21.594-53.883-36.871-89.11-29.825
		c-34.485,6.896-52.271,42.106-54.449,50.092c43.559-24.683,94.74,9.533,106.719,54.448c3.918,14.69,5.24,27.401,5.386,37.492
		C394.563,315.754,405.048,274.839,399.558,235.733z"/>
</g>
<path style="opacity:0.1;enable-background:new    ;" d="M164.407,143.605c-3.765,3.076-7.413,6.368-10.924,9.88
	c-56.618,56.618-56.618,148.414,0,205.032c55.957,55.957,146.271,56.603,203.03,1.952
	C173.372,390.304,150.976,200.222,164.407,143.605z"/>
</svg>
