<?xml version="1.0" encoding="iso-8859-1"?>
<!-- Generator: Adobe Illustrator 19.0.0, SVG Export Plug-In . SVG Version: 6.00 Build 0)  -->
<svg version="1.1" id="Layer_1" xmlns="http://www.w3.org/2000/svg" xmlns:xlink="http://www.w3.org/1999/xlink" x="0px" y="0px"
	 viewBox="0 0 511.992 511.992" style="enable-background:new 0 0 511.992 511.992;" xml:space="preserve">
<g>
	<polygon style="fill:#A85D5D;" points="129.422,252.996 90.422,294.996 210.42,409.494 256.92,369.494 	"/>
	<polygon style="fill:#A85D5D;" points="472.416,76.499 417.418,29.999 373.418,6.5 342.418,65.999 436.417,157.497 
		489.416,123.998 	"/>
</g>
<path style="fill:#CCD1D9;" d="M167.921,224.996l-21.5,28L250.42,354.494l27-23.249C277.42,331.245,169.921,225.496,167.921,224.996
	z"/>
<polygon style="fill:#ED5564;" points="180.093,224.996 180.093,236.246 277.42,331.245 282.748,322.667 368.746,224.996 "/>
<polygon style="fill:#F5F7FA;" points="338.746,75.655 182.749,217.996 372.746,217.996 429.418,160.997 "/>
<path d="M107.157,490.648c-5.891,0-10.672,4.781-10.672,10.672s4.781,10.672,10.672,10.672c5.89,0,10.656-4.781,10.656-10.672
	S113.047,490.648,107.157,490.648z"/>
<path d="M192.483,490.648c-5.891,0-10.672,4.781-10.672,10.672s4.781,10.672,10.672,10.672s10.672-4.781,10.672-10.672
	S198.374,490.648,192.483,490.648z"/>
<path d="M21.814,490.648c-5.89,0-10.656,4.781-10.656,10.672s4.766,10.672,10.656,10.672c5.891,0,10.672-4.781,10.672-10.672
	S27.704,490.648,21.814,490.648z"/>
<path d="M107.157,405.322c-5.891,0-10.672,4.766-10.672,10.672c0,5.875,4.781,10.656,10.672,10.656
	c5.89,0,10.656-4.781,10.656-10.656C117.812,410.088,113.047,405.322,107.157,405.322z"/>
<path d="M64.485,447.993c-5.891,0-10.672,4.766-10.672,10.656s4.781,10.671,10.672,10.671s10.672-4.781,10.672-10.671
	C75.157,452.759,70.376,447.993,64.485,447.993z"/>
<path d="M149.812,447.993c-5.89,0-10.656,4.766-10.656,10.656s4.766,10.671,10.656,10.671c5.891,0,10.672-4.781,10.672-10.671
	C160.484,452.759,155.703,447.993,149.812,447.993z"/>
<path d="M454.854,43.843C418.011,6.984,391.667,0,376.964,0c-8.984,0-13.609,2.609-13.609,2.609l-25.578,47.358
	c-3.374-0.656-7.015,0.312-9.624,2.922c-4.141,4.141-4.156,10.859-0.062,15.031l0,0c-86.577,85.233-81.78,67.499-158.31,143.373
	l-0.016-0.016c-4.172-4.156-10.922-4.156-15.094,0c-4.156,4.172-4.156,10.922,0,15.094l-15.078,15.078
	c-2.078-2.078-4.812-3.109-7.547-3.109c-2.719,0-5.453,1.031-7.547,3.109L79.25,286.715c-4.156,4.156-4.156,10.906,0,15.078
	l120.686,120.67c2.078,2.094,4.812,3.125,7.531,3.125c2.734,0,5.468-1.031,7.546-3.125l45.25-45.25
	c4.172-4.156,4.172-10.906,0-15.094l15.094-15.078l0,0c4.156,4.172,10.922,4.172,15.078,0c4.172-4.172,4.172-10.922,0-15.077
	l-0.016-0.016c75.623-76.28,57.139-70.749,143.388-158.326l0,0c4.172,4.109,10.875,4.093,15.016-0.047
	c2.625-2.625,3.594-6.266,2.922-9.641l47.358-25.562C499.103,138.373,514.26,103.233,454.854,43.843z M369.887,210.184
	l-63.483,0.219l82.093-82.092l30.219,30.234C396.871,180.716,381.652,196.997,369.887,210.184z M343.184,82.998l30.219,30.234
	l-97.279,97.28l-75.296,0.266c26.265-25.296,41.124-37.452,56.655-50.171C277.56,144.185,298.248,127.248,343.184,82.998z
	 M245.185,347.041l-90.514-90.514l15.094-15.078l90.499,90.515L245.185,347.041z M207.468,399.838L101.875,294.246l30.171-30.156
	l15.093,15.078c-4.171,4.172-4.171,10.922,0,15.078c4.156,4.172,10.922,4.172,15.078,0l15.093,15.093
	c-4.171,4.156-4.171,10.906,0,15.078c4.156,4.172,10.906,4.172,15.078,0l15.078,15.077c-4.156,4.172-4.156,10.938,0,15.094
	c4.171,4.156,10.921,4.156,15.093,0l15.078,15.094L207.468,399.838z M275.342,316.87l-84.733-84.733l160.825-0.547
	c-3.875,4.656-7.438,9.015-10.984,13.359C325.559,263.184,311.434,280.449,275.342,316.87z M437.651,147.31l-83.233-83.249
	l23.062-42.734c8,0.172,29.109,4.406,62.296,37.593c13.625,13.625,31.202,34.203,37.53,54.858c1.391,4.562,1.969,8.219,2.141,10.969
	L437.651,147.31z"/>
</svg>
