<?xml version="1.0" encoding="iso-8859-1"?>
<!-- Generator: Adobe Illustrator 19.0.0, SVG Export Plug-In . SVG Version: 6.00 Build 0)  -->
<svg version="1.1" id="Capa_1" xmlns="http://www.w3.org/2000/svg" xmlns:xlink="http://www.w3.org/1999/xlink" x="0px" y="0px"
	 viewBox="0 0 512 512" style="enable-background:new 0 0 512 512;" xml:space="preserve">
<path style="fill:#F7931E;" d="M375.967,221.388c0.262-2.896-0.711-5.885-2.923-8.089l-18.466-18.396
	c-3.956-3.941-10.431-3.941-14.387,0l-18.466,18.396c-2.213,2.205-3.186,5.193-2.924,8.089H375.967z"/>
<path style="fill:#ABB53C;" d="M397.462,221.388c0.118-0.779,0.199-1.57,0.199-2.381c0-8.749-7.121-15.842-15.901-15.842
	c-8.782,0-15.902,7.093-15.902,15.842c0,0.812,0.081,1.603,0.199,2.381H397.462z"/>
<path style="fill:#B3CCE2;" d="M439.391,3.903c-16.014,0-29.041,12.992-29.041,28.961v188.524h15V32.864
	c0-7.698,6.299-13.961,14.041-13.961c7.743,0,14.042,6.263,14.042,13.961v14.907c0,4.142,3.357,7.5,7.5,7.5s7.5-3.358,7.5-7.5
	V32.864C468.433,16.895,455.404,3.903,439.391,3.903z"/>
<path style="fill:#FFC554;" d="M244.471,0h-87.45c-17.227,0-31.243,14.027-31.243,31.268s14.016,31.267,31.243,31.267h31.302h3.239
	h21.586c8.958,0,16.246,7.298,16.246,16.269s-7.288,16.269-16.246,16.269H193.72c-4.143,0-7.5,3.358-7.5,7.5s3.357,7.5,7.5,7.5
	h19.428c17.229,0,31.246-14.027,31.246-31.269s-14.017-31.269-31.246-31.269h-21.586h-3.239H157.02
	c-8.956,0-16.243-7.297-16.243-16.267S148.064,15,157.02,15h87.45c4.143,0,7.5-3.358,7.5-7.5S248.613,0,244.471,0z"/>
<g>
	<path style="fill:#FCE591;" d="M179.686,141.528h-4.315h-6.477h-28.062c-8.959,0-16.247-7.298-16.247-16.268
		s7.288-16.267,16.247-16.267h13.346c4.143,0,7.5-3.358,7.5-7.5s-3.357-7.5-7.5-7.5h-13.346c-17.229,0-31.247,14.026-31.247,31.267
		s14.018,31.268,31.247,31.268h28.062h6.477h4.315c1.785,0,3.294,1.622,3.294,3.542v31.791c0,4.142,3.357,7.5,7.5,7.5
		s7.5-3.358,7.5-7.5V160.07C197.98,149.846,189.773,141.528,179.686,141.528z"/>
	<path style="fill:#FCE591;" d="M294.794,155.442H274.56c-4.142,0-7.5-3.358-7.5-7.5s3.358-7.5,7.5-7.5h20.233
		c9.499,0,17.228-7.739,17.228-17.252s-7.729-17.251-17.228-17.251h-25.856c-4.143,0-7.5-3.358-7.5-7.5s3.357-7.5,7.5-7.5h25.856
		c17.771,0,32.228,14.468,32.228,32.251C327.022,140.974,312.565,155.442,294.794,155.442z"/>
</g>
<path style="fill:#86A9BF;" d="M315.349,474.297c0,2.792-2.285,5.076-5.078,5.076H124.434c-2.793,0-5.078-2.284-5.078-5.076v-25.222
	c0-2.792,2.285-5.075,5.078-5.075h185.837c2.793,0,5.078,2.284,5.078,5.075V474.297z"/>
<g style="opacity:0.1;">
	<path style="fill:#1B003F;" d="M151.701,474.297v-25.222c0-2.792,2.285-5.075,5.078-5.075h-32.346
		c-2.793,0-5.078,2.284-5.078,5.075v25.222c0,2.792,2.285,5.076,5.078,5.076h32.346
		C153.986,479.373,151.701,477.089,151.701,474.297z"/>
</g>
<path style="fill:#C1262C;" d="M384.352,506.925c0,2.791-2.285,5.075-5.078,5.075H58.443c-2.793,0-5.078-2.284-5.078-5.075v-29.522
	c0-2.792,2.285-5.076,5.078-5.076h320.83c2.793,0,5.078,2.284,5.078,5.076v29.522H384.352z"/>
<g style="opacity:0.1;">
	<path style="fill:#1B003F;" d="M85.685,506.925v-29.522c0-2.792,2.285-5.076,5.078-5.076h-32.32c-2.793,0-5.078,2.284-5.078,5.076
		v29.522c0,2.791,2.285,5.075,5.078,5.075h32.319C87.97,512,85.685,509.716,85.685,506.925z"/>
</g>
<path style="fill:#F07C3C;" d="M154.082,314h56.227c1.143-2.46,1.798-5.19,1.798-8.08c0-10.651-8.667-19.286-19.358-19.286
	c-3.75,0-7.236,1.079-10.201,2.917c-2.461-8.675-10.448-15.04-19.944-15.04c-11.454,0-20.742,9.251-20.742,20.664
	C141.86,303.558,146.881,310.759,154.082,314z"/>
<g>
	<path style="fill:#F7931E;" d="M244.42,314h51.154l-46.106-45.93c-1.978-1.971-5.215-1.971-7.192,0l-18.384,18.314
		c-1.978,1.971-1.978,5.195,0,7.166L244.42,314z"/>
	<path style="fill:#F7931E;" d="M168.57,314c0.232-2.867-0.739-5.815-2.929-7.996l-18.466-18.396c-3.956-3.941-10.43-3.941-14.387,0
		l-18.467,18.396c-2.19,2.181-3.162,5.129-2.928,7.996H168.57z"/>
</g>
<path style="fill:#FCE591;" d="M246.951,314v-17.214c0-5.583-4.57-10.151-10.156-10.151l-26.148,0.001
	c-5.586,0-10.156,4.568-10.156,10.151V314H246.951z"/>
<path style="fill:#ABB53C;" d="M306.334,314c1.351-2.631,2.129-5.604,2.129-8.763c0-10.65-8.667-19.285-19.359-19.285
	c-10.689,0-19.358,8.635-19.358,19.285c0,3.159,0.777,6.131,2.129,8.763H306.334z"/>
<g>
	<path style="fill:#3A5792;" d="M84.655,310.879h-36.01c-2.793,0-5.078,2.284-5.078,5.075v27.318c0,2.792,2.285,5.075,5.078,5.075
		h36.01V310.879z"/>
	<path style="fill:#3A5792;" d="M389.072,310.879H353v37.469h36.072c2.793,0,5.078-2.284,5.078-5.075v-27.318
		C394.15,313.163,391.865,310.879,389.072,310.879z"/>
</g>
<path style="fill:#E2EEFD;" d="M81.687,310.879v115.03c0,12.153,9.925,22.041,22.123,22.041h230.097
	c12.198,0,22.125-9.888,22.125-22.041v-115.03H81.687z"/>
<rect x="81.69" y="310.88" style="fill:#B3CCE2;" width="274.35" height="29.335"/>
<g style="opacity:0.1;">
	<path style="fill:#1B003F;" d="M114.002,425.91V310.88H81.687v115.03c0,12.153,9.925,22.041,22.123,22.041h32.315
		C123.926,447.951,114.002,438.063,114.002,425.91z"/>
</g>
<path style="fill:#F7931E;" d="M97.704,499.177H76.829c-4.143,0-7.5-3.358-7.5-7.5s3.357-7.5,7.5-7.5h20.875
	c4.143,0,7.5,3.358,7.5,7.5S101.847,499.177,97.704,499.177z"/>
<path style="fill:#ABB53C;" d="M304.37,499.18c-1.98,0-3.91-0.8-5.31-2.2c-1.39-1.4-2.19-3.33-2.19-5.3c0-1.98,0.8-3.91,2.19-5.3
	c1.4-1.4,3.33-2.2,5.31-2.2s3.91,0.8,5.3,2.2c1.399,1.39,2.2,3.33,2.2,5.3s-0.801,3.9-2.2,5.3
	C308.28,498.38,306.34,499.18,304.37,499.18z"/>
<path style="fill:#FFFFFF;" d="M331.51,499.18c-1.979,0-3.91-0.8-5.31-2.2c-1.391-1.4-2.19-3.33-2.19-5.3c0-1.98,0.8-3.91,2.19-5.31
	c1.399-1.39,3.33-2.19,5.31-2.19c1.97,0,3.9,0.8,5.3,2.19c1.4,1.4,2.2,3.33,2.2,5.31c0,1.97-0.8,3.9-2.2,5.3
	C335.41,498.38,333.479,499.18,331.51,499.18z"/>
<path style="fill:#FCE591;" d="M358.64,499.18c-1.97,0-3.899-0.8-5.3-2.2c-1.39-1.4-2.2-3.33-2.2-5.3c0-1.98,0.8-3.91,2.2-5.31
	c1.39-1.39,3.33-2.19,5.3-2.19c1.98,0,3.91,0.8,5.311,2.19c1.399,1.4,2.199,3.34,2.199,5.31s-0.8,3.9-2.199,5.3
	C362.55,498.38,360.62,499.18,358.64,499.18z"/>
<path style="fill:#E2EEFD;" d="M425.35,218.256H296.166c-4.143,0-7.5,3.358-7.5,7.5c0,37.557,30.657,68.112,68.341,68.112
	c37.685,0,68.343-30.555,68.343-68.112C425.35,224.888,425.35,218.256,425.35,218.256z"/>
</svg>
