<?xml version="1.0" encoding="iso-8859-1"?>
<!-- Generator: Adobe Illustrator 19.0.0, SVG Export Plug-In . SVG Version: 6.00 Build 0)  -->
<svg version="1.1" id="Capa_1" xmlns="http://www.w3.org/2000/svg" xmlns:xlink="http://www.w3.org/1999/xlink" x="0px" y="0px"
	 viewBox="0 0 512.001 512.001" style="enable-background:new 0 0 512.001 512.001;" xml:space="preserve">
<path style="fill:#924031;" d="M377.001,150L377.001,150c-8.291,0-15-6.709-15-15s6.709-15,15-15l0,0c24.814,0,45-20.186,45-45
	s-20.186-45-45-45h-210c-8.291,0-15-6.709-15-15s6.709-15,15-15h210c41.353,0,75,33.647,75,75S418.354,150,377.001,150z"/>
<path style="fill:#BB6856;" d="M437.001,210h-60c-8.291,0-15-6.709-15-15s6.709-15,15-15h60c24.814,0,45-20.186,45-45
	s-20.186-45-45-45h-240c-8.291,0-15-6.709-15-15s6.709-15,15-15h240c41.353,0,75,33.647,75,75S478.354,210,437.001,210z"/>
<path style="fill:#FD3018;" d="M226.317,299.996c-7.983-0.047-14.316-7.014-14.316-14.996V150c0-16.569,13.431-30,30-30h135
	c7.996,0,14.967,6.354,14.998,14.349c0.171,44.127-16.939,85.852-48.133,117.399C312.123,283.137,270.388,300.254,226.317,299.996z"
	/>
<circle style="fill:#57555C;" cx="287.001" cy="195" r="15"/>
<g>
	<path style="fill:#FD4E26;" d="M239.687,292.61c1.364-2.269,2.314-4.808,2.314-7.61V135.051V120h-75
		c-48.831,0-94.64,21.445-124.878,55.269V210l69.939,68.939L239.687,292.61z"/>
	<path style="fill:#FD4E26;" d="M239.652,292.59l0.035,0.02c-2.095,3.486-5.409,6.189-9.624,7.068
		c-27.847,5.83-48.062,31.186-48.062,60.322c0,31.741,24.833,57.526,56.058,59.601l85.622-57.081
		c5.903-3.984,13.843-3.208,18.926,1.875c38.936,38.936,38.936,104.275,0,143.211c-2.9,2.9-6.738,4.395-10.605,4.395
		c-2.886,0-5.786-0.82-8.32-2.52L237.46,450h-70.459C87.535,450,19.029,393.527,3.462,318.609l37.574-37.574h140.965L239.652,292.59
		z"/>
</g>
<path style="fill:#FD3018;" d="M0.001,285c0,11.516,1.205,22.753,3.461,33.609l236.19-26.019L42.123,175.269
	C16.023,204.463,0.001,242.849,0.001,285z"/>
</svg>
