<?xml version="1.0" encoding="iso-8859-1"?>
<!-- Generator: Adobe Illustrator 19.0.0, SVG Export Plug-In . SVG Version: 6.00 Build 0)  -->
<svg version="1.1" id="Capa_1" xmlns="http://www.w3.org/2000/svg" xmlns:xlink="http://www.w3.org/1999/xlink" x="0px" y="0px"
	 viewBox="0 0 512.002 512.002" style="enable-background:new 0 0 512.002 512.002;" xml:space="preserve">
<polygon style="fill:#248A48;" points="374.41,51.723 402.767,5.907 454.861,38.149 426.493,83.975 "/>
<path style="fill:#5A6B96;" d="M122.792,450.109l-18.269-130.291H89.13c-8.889,0-17.25-3.465-23.542-9.757
	c-6.293-6.292-9.757-14.656-9.757-23.552c0-18.361,14.939-33.3,33.3-33.3h5.994l-7.002-45.08h335.746l-7.002,45.08h6.004
	c8.889,0,17.25,3.465,23.542,9.757c6.293,6.292,9.757,14.653,9.757,23.542c0,18.367-14.939,33.31-33.3,33.31h-15.393l-18.27,130.291
	H122.792z"/>
<path style="fill:#44C973;" d="M246.452,214.164v-4.081l0.666-0.838c5.717-7.108,11.848-14.073,18.225-20.703
	c6.443-6.678,13.191-13.074,20.059-19.014c23-19.916,42.771-43.115,58.764-68.953l32.705-52.848h2.54l0.74,0.452l49.517,30.663
	l-33.408,53.974c-15.219,24.591-26.794,51.213-34.402,79.124l-0.607,2.224L246.452,214.164L246.452,214.164z"/>
<polygon style="fill:#455273;" points="130.478,504.958 121.946,444.073 390.053,444.073 381.51,504.958 "/>
<path d="M459.259,44.421c1.404-2.269,1.85-5.003,1.238-7.601c-0.611-2.598-2.229-4.845-4.498-6.249L409.039,1.507
	c-4.724-2.924-10.924-1.465-13.849,3.261l-25.09,40.539c-0.032,0.05-0.069,0.095-0.101,0.146l-31.82,51.417
	c-15.617,25.231-34.924,47.886-57.382,67.332c-7.029,6.078-13.932,12.621-20.53,19.46c-5.394,5.609-10.602,11.46-15.554,17.426
	H91.645c-2.938,0-5.728,1.284-7.64,3.515c-1.911,2.231-2.751,5.186-2.301,8.089l5.209,33.536
	c-21.217,1.155-38.124,18.782-38.124,40.282c0,10.777,4.198,20.91,11.82,28.532c7.623,7.622,17.751,11.82,28.522,11.82h9.27
	l15.446,110.17h-11.989c-5.556,0-10.06,4.504-10.06,10.06s4.504,10.06,10.06,10.06h14.81l6.475,46.185
	c0.696,4.968,4.947,8.664,9.963,8.664h245.783c5.016,0,9.266-3.695,9.963-8.662l6.481-46.187h14.815
	c5.556,0,10.06-4.504,10.06-10.06s-4.504-10.06-10.06-10.06h-11.992l15.449-110.17h9.27c22.244,0,40.342-18.101,40.342-40.352
	c0-10.771-4.198-20.9-11.82-28.523c-7.1-7.099-16.373-11.227-26.315-11.76l5.208-33.535c0.451-2.902-0.389-5.858-2.301-8.089
	s-4.702-3.515-7.64-3.515H372.44c7.284-22.641,17.276-44.31,29.811-64.564L459.259,44.421z M407.004,23.91l29.852,18.476
	L422.258,65.97l-29.847-18.482L407.004,23.91z M370.138,491.879H141.852l-4.869-34.728h238.026L370.138,491.879z M405.703,262.772
	c1.911,2.231,4.702,3.515,7.64,3.515h9.527c5.396,0,10.473,2.105,14.294,5.926c3.822,3.822,5.928,8.898,5.928,14.295
	c0,11.155-9.071,20.231-20.221,20.231h-18.018c-5.016,0-9.266,3.695-9.963,8.663L377.832,437.03H134.162l-17.051-121.628
	c-0.697-4.968-4.947-8.663-9.963-8.663H89.131c-5.396,0-10.473-2.105-14.294-5.927c-3.822-3.822-5.928-8.902-5.928-14.305
	c0-11.15,9.071-20.221,20.221-20.221h9.517h157.353c5.556,0,10.06-4.504,10.06-10.06c0-5.556-4.504-10.06-10.06-10.06H107.264
	l-3.876-24.96h255.527c0.012,0,0.025,0.002,0.037,0.002c0.02,0,0.039-0.002,0.059-0.002h49.589l-5.199,33.476
	C402.95,257.586,403.791,260.541,405.703,262.772z M351.372,201.086h-79.875c1.082-1.162,2.164-2.326,3.262-3.468
	c6.167-6.392,12.627-12.515,19.204-18.203c24.003-20.785,44.635-44.995,61.324-71.958l26.528-42.866l29.852,18.486l-26.528,42.856
	C370.612,149.408,359.277,174.659,351.372,201.086z"/>
<path d="M286.18,246.167c-12.947,0-12.968,20.121,0,20.121C299.127,266.288,299.148,246.167,286.18,246.167z"/>
</svg>
